<svg width="169" height="25" viewBox="0 0 169 25" fill="none" xmlns="http://www.w3.org/2000/svg">
<path d="M12.5405 13.898L13.2017 9.58737H9.06573V6.79002C9.06573 5.61069 9.64347 4.46117 11.496 4.46117H13.3765V0.791281C13.3765 0.791281 11.6698 0.5 10.0383 0.5C6.63189 0.5 4.40556 2.56447 4.40556 6.30195V9.58737H0.619141V13.898H4.40556V24.3188C5.1648 24.438 5.94297 24.5 6.73567 24.5C7.52837 24.5 8.30655 24.438 9.06573 24.3188V13.898H12.5405Z" fill="#120D26"/>
<path d="M52.5475 22.2512C61.6042 22.2512 66.5578 14.7479 66.5578 8.24098C66.5578 8.02789 66.5578 7.81573 66.5434 7.60452C67.507 6.90744 68.3389 6.04442 69 5.05573C68.1014 5.45394 67.148 5.71503 66.1718 5.83044C67.1995 5.21525 67.9692 4.24691 68.3366 3.10691C67.3701 3.68042 66.3126 4.08467 65.2099 4.30213C64.2789 3.31208 62.9786 2.75 61.6196 2.75C58.9158 2.75 56.691 4.97487 56.691 7.67863C56.691 8.05372 56.7338 8.42764 56.8185 8.79299C52.8615 8.59466 49.1695 6.72294 46.6704 3.64836C45.3708 5.88552 46.0432 8.78474 48.1949 10.2215C47.4113 10.1983 46.6447 9.98684 45.96 9.60514V9.66753C45.9607 12.0026 47.6216 14.0321 49.9104 14.4944C49.1855 14.6921 48.4248 14.721 47.6871 14.5789C48.3305 16.5798 50.186 17.959 52.2874 17.9984C50.5441 19.3685 48.3894 20.1126 46.1722 20.1104C45.7804 20.1097 45.389 20.086 45 20.0394C47.2516 21.4843 49.8722 22.2509 52.5475 22.2474" fill="#120D26"/>
<path d="M107 0.5C103.741 0.5 103.332 0.513828 102.052 0.572234C100.775 0.6305 99.9028 0.833328 99.1395 1.13C98.3504 1.43666 97.6812 1.847 97.0141 2.51412C96.347 3.1812 95.9366 3.85044 95.63 4.63953C95.3333 5.4028 95.1305 6.27514 95.0722 7.55239C95.0138 8.83231 95 9.24097 95 12.5C95 15.7589 95.0138 16.1676 95.0722 17.4475C95.1305 18.7248 95.3333 19.5971 95.63 20.3604C95.9366 21.1495 96.347 21.8187 97.0141 22.4859C97.6812 23.153 98.3504 23.5633 99.1395 23.87C99.9028 24.1666 100.775 24.3695 102.052 24.4277C103.332 24.4861 103.741 24.4999 107 24.4999C110.259 24.4999 110.668 24.4861 111.948 24.4277C113.225 24.3695 114.097 24.1666 114.86 23.87C115.649 23.5633 116.319 23.153 116.986 22.4859C117.653 21.8187 118.063 21.1495 118.37 20.3604C118.667 19.5971 118.869 18.7248 118.928 17.4475C118.986 16.1676 119 15.7589 119 12.5C119 9.24097 118.986 8.83231 118.928 7.55239C118.869 6.27514 118.667 5.4028 118.37 4.63953C118.063 3.85044 117.653 3.1812 116.986 2.51412C116.319 1.847 115.649 1.43666 114.86 1.13C114.097 0.833328 113.225 0.6305 111.948 0.572234C110.668 0.513828 110.259 0.5 107 0.5V0.5ZM107 2.6622C110.204 2.6622 110.584 2.67439 111.849 2.73214C113.019 2.78553 113.654 2.981 114.077 3.1453C114.637 3.36298 115.037 3.62305 115.457 4.04295C115.877 4.46286 116.137 4.86266 116.355 5.42272C116.519 5.84558 116.714 6.48097 116.768 7.65092C116.826 8.91631 116.838 9.29586 116.838 12.5C116.838 15.7041 116.826 16.0836 116.768 17.349C116.714 18.5189 116.519 19.1543 116.355 19.5772C116.137 20.1373 115.877 20.537 115.457 20.957C115.037 21.3769 114.637 21.6369 114.077 21.8546C113.654 22.019 113.019 22.2144 111.849 22.2678C110.584 22.3255 110.204 22.3377 107 22.3377C103.796 22.3377 103.416 22.3255 102.151 22.2678C100.981 22.2144 100.346 22.019 99.9227 21.8546C99.3626 21.6369 98.9629 21.3769 98.5429 20.957C98.123 20.537 97.8629 20.1373 97.6453 19.5772C97.481 19.1543 97.2855 18.5189 97.2321 17.349C97.1743 16.0836 97.1622 15.7041 97.1622 12.5C97.1622 9.29586 97.1743 8.91631 97.2321 7.65092C97.2855 6.48097 97.481 5.84558 97.6453 5.42272C97.8629 4.86266 98.123 4.46286 98.5429 4.04295C98.9629 3.62305 99.3626 3.36298 99.9227 3.1453C100.346 2.981 100.981 2.78553 102.151 2.73214C103.416 2.67439 103.796 2.6622 107 2.6622Z" fill="#120D26"/>
<path d="M107.001 16.4981C104.792 16.4981 103.001 14.7072 103.001 12.4981C103.001 10.289 104.792 8.49809 107.001 8.49809C109.21 8.49809 111.001 10.289 111.001 12.4981C111.001 14.7072 109.21 16.4981 107.001 16.4981ZM107.001 6.33594C103.598 6.33594 100.839 9.09481 100.839 12.4981C100.839 15.9013 103.598 18.6602 107.001 18.6602C110.404 18.6602 113.163 15.9013 113.163 12.4981C113.163 9.09481 110.404 6.33594 107.001 6.33594Z" fill="#120D26"/>
<path d="M114.846 6.09987C114.846 6.89519 114.201 7.53987 113.406 7.53987C112.611 7.53987 111.966 6.89519 111.966 6.09987C111.966 5.30458 112.611 4.65991 113.406 4.65991C114.201 4.65991 114.846 5.30458 114.846 6.09987Z" fill="#120D26"/>
<path d="M168.498 6.72102C168.222 5.68836 167.409 4.87522 166.377 4.59927C164.505 4.09766 157 4.09766 157 4.09766C157 4.09766 149.495 4.09766 147.623 4.59927C146.591 4.87522 145.777 5.68836 145.501 6.72102C145 8.59264 145 12.4977 145 12.4977C145 12.4977 145 16.4028 145.501 18.2742C145.777 19.3069 146.591 20.1202 147.623 20.3961C149.495 20.8976 157 20.8976 157 20.8976C157 20.8976 164.505 20.8976 166.377 20.3961C167.409 20.1202 168.222 19.3069 168.498 18.2742C169 16.4028 169 12.4977 169 12.4977C169 12.4977 169 8.59264 168.498 6.72102Z" fill="#120D26"/>
<path d="M154.601 16.1022L160.836 12.5021L154.601 8.9021V16.1022Z" fill="white"/>
</svg>
