<svg width="91" height="25" viewBox="0 0 91 25" fill="none" xmlns="http://www.w3.org/2000/svg">
<path d="M9.31756 18V6.8H11.1576V18H9.31756ZM10.5816 18V16.32H16.4376V18H10.5816Z" fill="#A2A5AD"/>
<path d="M45.8907 18.16C45.0054 18.16 44.2534 18 43.6347 17.68C43.016 17.36 42.4614 16.8907 41.9707 16.272L43.2187 15.024C43.528 15.472 43.896 15.824 44.3227 16.08C44.7494 16.3253 45.2934 16.448 45.9547 16.448C46.5734 16.448 47.064 16.32 47.4267 16.064C47.8 15.808 47.9867 15.456 47.9867 15.008C47.9867 14.6347 47.8907 14.3307 47.6987 14.096C47.5067 13.8613 47.2507 13.6693 46.9307 13.52C46.6214 13.36 46.2747 13.2213 45.8907 13.104C45.5174 12.976 45.1387 12.8373 44.7547 12.688C44.3814 12.528 44.0347 12.3307 43.7147 12.096C43.4054 11.8613 43.1547 11.5573 42.9627 11.184C42.7707 10.8107 42.6747 10.336 42.6747 9.76C42.6747 9.09867 42.8347 8.53867 43.1547 8.08C43.4854 7.61067 43.928 7.25333 44.4827 7.008C45.0374 6.76267 45.656 6.64 46.3387 6.64C47.0747 6.64 47.7307 6.784 48.3067 7.072C48.8934 7.36 49.368 7.728 49.7307 8.176L48.4827 9.424C48.1627 9.06133 47.8267 8.79467 47.4747 8.624C47.1334 8.44267 46.7387 8.352 46.2907 8.352C45.736 8.352 45.2987 8.464 44.9787 8.688C44.6694 8.912 44.5147 9.22667 44.5147 9.632C44.5147 9.97333 44.6107 10.2507 44.8027 10.464C44.9947 10.6667 45.2454 10.8427 45.5547 10.992C45.8747 11.1307 46.2214 11.264 46.5947 11.392C46.9787 11.52 47.3574 11.664 47.7307 11.824C48.1147 11.984 48.4614 12.192 48.7707 12.448C49.0907 12.6933 49.3467 13.0133 49.5387 13.408C49.7307 13.8027 49.8267 14.2987 49.8267 14.896C49.8267 15.8987 49.4694 16.6933 48.7547 17.28C48.0507 17.8667 47.096 18.16 45.8907 18.16Z" fill="#A2A5AD"/>
<path d="M77.765 19L74.469 14.008H74.133L69.701 7.8H71.877L75.189 12.504H75.525L79.909 19H77.765ZM69.509 19L73.765 13.016L75.029 14.088L71.573 19H69.509ZM75.653 13.64L74.389 12.568L77.653 7.8H79.717L75.653 13.64ZM81.2941 19V7.8H83.1341V19H81.2941ZM82.5581 19V17.32H88.4141V19H82.5581Z" fill="#A2A5AD"/>
<rect x="67.4" y="0.4" width="23.2" height="24.2" rx="1.6" stroke="#A5A9B3" stroke-width="0.8"/>
<rect x="34.4" y="0.4" width="24.2" height="24.2" rx="1.6" stroke="#A5A9B3" stroke-width="0.8"/>
<rect x="0.4" y="0.4" width="23.2" height="24.2" rx="1.6" stroke="#A5A9B3" stroke-width="0.8"/>
</svg>
